<svg width="40" height="35" viewBox="0 0 40 35" fill="none" xmlns="http://www.w3.org/2000/svg">
<path d="M2 2H7.78538L12.1244 25.9545H35.2659M12.1244 20.3182H34.6729C34.8402 20.3183 35.0023 20.2619 35.1317 20.1587C35.261 20.0554 35.3497 19.9117 35.3825 19.7519L37.9859 7.07009C38.0069 6.96783 38.0044 6.8623 37.9785 6.76111C37.9525 6.65993 37.9038 6.56562 37.836 6.48499C37.7681 6.40436 37.6827 6.33942 37.5859 6.29485C37.4891 6.25028 37.3834 6.2272 37.2763 6.22727H9.23172M15.0171 31.5909C15.0171 32.3691 14.3695 33 13.5708 33C12.772 33 12.1244 32.3691 12.1244 31.5909C12.1244 30.8127 12.772 30.1818 13.5708 30.1818C14.3695 30.1818 15.0171 30.8127 15.0171 31.5909ZM35.2659 31.5909C35.2659 32.3691 34.6184 33 33.8196 33C33.0208 33 32.3732 32.3691 32.3732 31.5909C32.3732 30.8127 33.0208 30.1818 33.8196 30.1818C34.6184 30.1818 35.2659 30.8127 35.2659 31.5909Z" stroke="white" stroke-width="3" stroke-linecap="round" stroke-linejoin="round"/>
</svg>
