<svg width="46" height="61" viewBox="0 0 46 61" fill="none" xmlns="http://www.w3.org/2000/svg">
<path d="M14.3762 23.2395C14.4059 20.9377 15.3241 18.7388 16.935 17.111C18.5458 15.4833 20.7221 14.5556 23 14.5255C25.2779 14.5556 27.4542 15.4833 29.065 17.111C30.6759 18.7388 31.5941 20.9377 31.6238 23.2395C31.5941 25.5412 30.6759 27.7402 29.065 29.3679C27.4542 30.9956 25.2779 31.9234 23 31.9534C20.7221 31.9234 18.5458 30.9956 16.935 29.3679C15.3241 27.7402 14.4059 25.5412 14.3762 23.2395ZM23 49.3814L34.4984 52.286V43.3397C31.0307 45.4498 27.0475 46.5365 23 46.4767C18.9525 46.5365 14.9693 45.4498 11.5016 43.3397V52.286M23 5.81155C20.7347 5.76978 18.4849 6.1966 16.3889 7.06575C14.2928 7.9349 12.3949 9.22803 10.8116 10.8656C9.17345 12.4672 7.87889 14.3922 7.00851 16.5209C6.13813 18.6497 5.71054 20.9366 5.75233 23.2395C5.72238 25.5278 6.15573 27.7981 7.02576 29.911C7.89579 32.0239 9.18413 33.9347 10.8116 35.5262C12.3875 37.1795 14.2822 38.4888 16.3785 39.3731C18.4749 40.2574 20.7285 40.6979 23 40.6674C25.2715 40.6979 27.5251 40.2574 29.6215 39.3731C31.7178 38.4888 33.6125 37.1795 35.1883 35.5262C36.8159 33.9347 38.1042 32.0239 38.9742 29.911C39.8443 27.7981 40.2776 25.5278 40.2477 23.2395C40.2895 20.9366 39.8619 18.6497 38.9915 16.5209C38.1211 14.3922 36.8265 12.4672 35.1883 10.8656C33.6051 9.22803 31.7071 7.9349 29.6111 7.06575C27.5151 6.1966 25.2653 5.76978 23 5.81155ZM45.9969 23.2395C45.9382 26.0279 45.3831 28.7828 44.3584 31.3725C43.4397 34.0094 42.046 36.4517 40.2477 38.5761V61L23 55.1907L5.75233 61V38.5761C2.0317 34.354 -0.0155694 28.8927 0.00311323 23.2395C-0.0475514 20.1913 0.520649 17.165 1.67264 14.3473C2.82462 11.5297 4.53595 8.98051 6.70096 6.85722C8.81007 4.64997 11.3445 2.90292 14.1478 1.72391C16.9511 0.544901 19.9639 -0.0410465 23 0.00223423C26.0361 -0.0410465 29.0489 0.544901 31.8522 1.72391C34.6555 2.90292 37.1899 4.64997 39.299 6.85722C41.4641 8.98051 43.1754 11.5297 44.3274 14.3473C45.4794 17.165 46.0476 20.1913 45.9969 23.2395Z" fill="url(#paint0_linear_22_369)"/>
<defs>
<linearGradient id="paint0_linear_22_369" x1="46" y1="-3.63588e-06" x2="-9.5265" y2="10.4681" gradientUnits="userSpaceOnUse">
<stop stop-color="#A43EF0"/>
<stop offset="1" stop-color="#5E248A"/>
</linearGradient>
</defs>
</svg>
