<svg width="65" height="52" viewBox="0 0 65 52" fill="none" xmlns="http://www.w3.org/2000/svg">
<path d="M44.135 41.6L32.5 34.125L20.865 41.6L24.375 28.21L13.6825 19.5L27.495 18.655L32.5 5.85L37.505 18.655L51.3175 19.5L40.625 28.21M58.5 26C58.5 24.2761 59.1848 22.6228 60.4038 21.4038C61.6228 20.1848 63.2761 19.5 65 19.5V6.5C65 4.77609 64.3152 3.12279 63.0962 1.90381C61.8772 0.684819 60.2239 0 58.5 0H6.5C4.77609 0 3.12279 0.684819 1.90381 1.90381C0.684819 3.12279 0 4.77609 0 6.5V19.5C1.72391 19.5 3.37721 20.1848 4.59619 21.4038C5.81518 22.6228 6.5 24.2761 6.5 26C6.5 27.7239 5.81518 29.3772 4.59619 30.5962C3.37721 31.8152 1.72391 32.5 0 32.5V45.5C0 47.2239 0.684819 48.8772 1.90381 50.0962C3.12279 51.3152 4.77609 52 6.5 52H58.5C60.2239 52 61.8772 51.3152 63.0962 50.0962C64.3152 48.8772 65 47.2239 65 45.5V32.5C63.2761 32.5 61.6228 31.8152 60.4038 30.5962C59.1848 29.3772 58.5 27.7239 58.5 26Z" fill="url(#paint0_linear_22_348)"/>
<defs>
<linearGradient id="paint0_linear_22_348" x1="65" y1="-3.09944e-06" x2="-9.02135" y2="23.1317" gradientUnits="userSpaceOnUse">
<stop stop-color="#A43EF0"/>
<stop offset="1" stop-color="#5E248A"/>
</linearGradient>
</defs>
</svg>
