<svg width="65" height="52" viewBox="0 0 65 52" fill="none" xmlns="http://www.w3.org/2000/svg">
<path d="M6.5 0H58.5C60.2239 0 61.8772 0.684819 63.0962 1.90381C64.3152 3.12279 65 4.77609 65 6.5V45.5C65 47.2239 64.3152 48.8772 63.0962 50.0962C61.8772 51.3152 60.2239 52 58.5 52H6.5C4.77609 52 3.12279 51.3152 1.90381 50.0962C0.684819 48.8772 0 47.2239 0 45.5V6.5C0 4.77609 0.684819 3.12279 1.90381 1.90381C3.12279 0.684819 4.77609 0 6.5 0ZM6.5 6.5V45.5H29.25V6.5H6.5ZM58.5 45.5V6.5H54.47C55.25 8.255 55.0875 9.9775 55.0875 10.1725C54.86 12.35 53.3325 14.625 52.78 15.4375L45.2075 23.725L55.9975 23.66L56.03 27.625L39.13 27.5275L39 24.2775C39 24.2775 48.9125 13.78 49.4 12.8375C49.855 11.9275 51.7075 6.5 47.125 6.5C43.1275 6.6625 43.5825 10.725 43.5825 10.725L38.5775 10.7575C38.5775 10.7575 38.61 8.6125 39.8125 6.5H35.75V45.5H44.135L44.1025 42.705L47.255 42.6725C47.255 42.6725 50.2125 42.1525 50.245 39.26C50.375 36.01 47.6125 36.01 47.125 36.01C46.7025 36.01 43.6475 36.1725 43.6475 38.8375H38.7075C38.7075 38.8375 38.8375 32.1425 47.125 32.1425C55.575 32.1425 55.12 38.7075 55.12 38.7075C55.12 38.7075 55.25 42.77 51.5125 44.2975L53.2025 45.5H58.5ZM22.49 39H17.615V20.15L11.765 21.97V17.9725L21.97 14.3325H22.49V39Z" fill="url(#paint0_linear_22_361)"/>
<defs>
<linearGradient id="paint0_linear_22_361" x1="65" y1="-3.09944e-06" x2="-9.02135" y2="23.1317" gradientUnits="userSpaceOnUse">
<stop stop-color="#A43EF0"/>
<stop offset="1" stop-color="#5E248A"/>
</linearGradient>
</defs>
</svg>
