<svg width="25" height="20" viewBox="0 0 25 20" fill="none" xmlns="http://www.w3.org/2000/svg">
<path d="M16.975 16L12.5 13.125L8.025 16L9.375 10.85L5.2625 7.5L10.575 7.175L12.5 2.25L14.425 7.175L19.7375 7.5L15.625 10.85M22.5 10C22.5 9.33696 22.7634 8.70107 23.2322 8.23223C23.7011 7.76339 24.337 7.5 25 7.5V2.5C25 1.83696 24.7366 1.20107 24.2678 0.732233C23.7989 0.263392 23.163 0 22.5 0H2.5C1.83696 0 1.20107 0.263392 0.732233 0.732233C0.263392 1.20107 0 1.83696 0 2.5V7.5C0.663041 7.5 1.29893 7.76339 1.76777 8.23223C2.23661 8.70107 2.5 9.33696 2.5 10C2.5 10.663 2.23661 11.2989 1.76777 11.7678C1.29893 12.2366 0.663041 12.5 0 12.5V17.5C0 18.163 0.263392 18.7989 0.732233 19.2678C1.20107 19.7366 1.83696 20 2.5 20H22.5C23.163 20 23.7989 19.7366 24.2678 19.2678C24.7366 18.7989 25 18.163 25 17.5V12.5C24.337 12.5 23.7011 12.2366 23.2322 11.7678C22.7634 11.2989 22.5 10.663 22.5 10Z" fill="white"/>
</svg>
